# xmcd CD database file
# Copyright (C) 1993-1996 Ti Kan
#
# Track frame offsets:
# 182
# 11927
# 23832
# 35552
# 46027
# 57727
# 70962
# 82362
# 91255
# 103290
# 113240
# 122770
# 133675
# 147627
# 159132
# 170697
# 181517
# 190540
# 202542
# 215642
# 226840
# 237480
# 248917
# 258962
# 268615
#
# Disc length: 3750 seconds
# Revision: 0
# Processed by: cddbd v1.4b41PL1 Copyright (c) Steve Scherf et al.
# Submitted via: CDSpectrumPro v3.2.327
#
DISCID=650ea419
DTITLE=Patsy Cline - Crazy Dreams
DYEAR=1900
DGENRE=
TTITLE0=Walking after Midnight
TTITLE1=Let the Teardrops fall
TTITLE2=I've loved and lost again
TTITLE3=Too many Secrets
TTITLE4=In care of the Blues
TTITLE5=If I could see the World through the Eyes of a Child
TTITLE6=Hungry for love
TTITLE7=Ain't no Wheel on this Ship
TTITLE8=If I could stay asleep
TTITLE9=I'm blue again
TTITLE10=Love Love Love me honey
TTITLE11=I can see an Angel
TTITLE12=A Church, A Courtroom, and then goodbye
TTITLE13=Lonely Street
TTITLE14=Crazy Dreams
TTITLE15=Got a lotta Rhytm in my Soul
TTITLE16=Try again
TTITLE17=Never no more
TTITLE18=Life's Railway to Heaven
TTITLE19=There he goes
TTITLE20=Love Sick Blues
TTITLE21=Just out of reach
TTITLE22=Turn the cards slowly
TTITLE23=I'm moving along
TTITLE24=Just a closer walk with thee
EXTD=
EXTT0=
EXTT1=
EXTT2=
EXTT3=
EXTT4=
EXTT5=
EXTT6=
EXTT7=
EXTT8=
EXTT9=
EXTT10=
EXTT11=
EXTT12=
EXTT13=
EXTT14=
EXTT15=
EXTT16=
EXTT17=
EXTT18=
EXTT19=
EXTT20=
EXTT21=
EXTT22=
EXTT23=
EXTT24=
PLAYORDER=
